<svg xmlns="http://www.w3.org/2000/svg" viewBox="0 0 104.36 76.97"><defs><style>.cls-1{fill:#06354a;}</style></defs><g id="Camada_2" data-name="Camada 2"><g id="Layer_1" data-name="Layer 1"><path class="cls-1" d="M0,32a9.77,9.77,0,0,1,5.13-8.27c3.29-1.88,6.59-1.37,9.74.46,3.35,1.94,6,4.72,8.63,7.47,4.82,5,9.59,10.05,14.51,15,2.8,2.79,3,2.75,5.79,0C49.93,40.58,56,34.45,62.06,28.34Q74.21,16.1,86.33,3.86C88.75,1.42,91.51-.21,95.12,0A9.85,9.85,0,0,1,103.47,14a9.19,9.19,0,0,1-2,2.59c-5.4,5.6-10.78,11.23-16.28,16.73Q69,49.56,52.57,65.72c-3.41,3.38-6.8,6.78-10.22,10.15-1.5,1.47-1.21,1.42-2.64.07C35.82,72.28,32,68.52,28.22,64.76Q17.59,54.26,7,43.71C5.24,41.94,3.62,40,2,38.12A9,9,0,0,1,0,32Z"/></g></g></svg>