<svg xmlns="http://www.w3.org/2000/svg" viewBox="0 0 144.85 57.92"><defs><style>.cls-1{fill:#06354a;}</style></defs><g id="Camada_2" data-name="Camada 2"><g id="Layer_1" data-name="Layer 1"><path class="cls-1" d="M47.32,57.92a1.18,1.18,0,0,1-1.18-1.19V35.26a1.19,1.19,0,0,1,2.37,0,5.81,5.81,0,1,0,5.81-5.81H51.41a1.19,1.19,0,1,1,0-2.37h2.91A8.19,8.19,0,1,1,48.51,41V56.73a1.19,1.19,0,0,1-1.19,1.19"/><path class="cls-1" d="M19.54,43.45a1.18,1.18,0,0,1-1.18-1.19v-14a1.19,1.19,0,1,1,2.37,0v14a1.19,1.19,0,0,1-1.19,1.19"/><path class="cls-1" d="M69.15,43.45a3.37,3.37,0,0,1-2.66-1.05,3.2,3.2,0,0,1-.75-2.27V13.4a1.19,1.19,0,1,1,2.37,0V40.18a.71.71,0,0,1,0,.14.9.9,0,0,0,.17.52,1.25,1.25,0,0,0,.88.24,1.19,1.19,0,0,1,0,2.37"/><path class="cls-1" d="M85.56,41.08H81.48a5.78,5.78,0,0,1-4.11-1.71,5.84,5.84,0,0,1-1.58-2.92h5.69a1.19,1.19,0,0,0,0-2.37H75.8a5.78,5.78,0,0,1,5.68-4.63h4.08a1.19,1.19,0,1,0,0-2.37H81.48a8.18,8.18,0,0,0-8.18,8.15v.06a8.18,8.18,0,0,0,8.18,8.16h4.08a1.19,1.19,0,1,0,0-2.37"/><path class="cls-1" d="M46.6,27.08H42a6.42,6.42,0,0,0-5.25,2.73,6.42,6.42,0,0,0-9.32-1.28v-.27a1.19,1.19,0,0,0-2.37,0v14a1.19,1.19,0,1,0,2.37,0V33.51a4.07,4.07,0,0,1,8.13,0v8.75a1.19,1.19,0,1,0,2.37,0V33.51A4.07,4.07,0,0,1,42,29.45H46.6a1.19,1.19,0,1,0,0-2.37"/><path class="cls-1" d="M143.61,43.45a1.25,1.25,0,0,1-1.25-1.24V34.87A32.42,32.42,0,0,0,110,2.48a1.82,1.82,0,1,0,0,3.63,28.79,28.79,0,0,1,28.76,28.76v4.28a4.3,4.3,0,1,1-8.59,0V34.87A20.19,20.19,0,0,0,110,14.7a1.81,1.81,0,1,0,0,3.62,16.57,16.57,0,0,1,16.55,16.55v7.34a1.25,1.25,0,0,1-2.49,0V34.87A14.08,14.08,0,0,0,110,20.8a4.3,4.3,0,1,1,0-8.59,22.68,22.68,0,0,1,22.65,22.66v4.28a1.82,1.82,0,0,0,3.63,0V34.87A26.31,26.31,0,0,0,110,8.59,4.3,4.3,0,1,1,110,0a34.91,34.91,0,0,1,34.87,34.87v7.34a1.25,1.25,0,0,1-1.24,1.24"/><path class="cls-1" d="M1.18,43.47a1.19,1.19,0,0,1,0-2.37H9.36a2.32,2.32,0,0,0,0-4.63H4.82a4.69,4.69,0,0,1-3.34-8,4.63,4.63,0,0,1,3.3-1.41l7.93,0h0a1.19,1.19,0,0,1,0,2.37l-7.91,0a2.26,2.26,0,0,0-1.62.69A2.32,2.32,0,0,0,4.83,34.1H9.36a4.69,4.69,0,0,1,0,9.37Z"/><path class="cls-1" d="M109.34,43.45a8.18,8.18,0,0,0,8.14-9A8.41,8.41,0,0,0,109,27.08h-2.56a1.19,1.19,0,1,0,0,2.37H109a6,6,0,0,1,6.13,5.5,5.81,5.81,0,0,1-11.53,1.3,1.19,1.19,0,0,0-2.34.38,8.18,8.18,0,0,0,8.07,6.82"/></g></g></svg>