<svg xmlns="http://www.w3.org/2000/svg" viewBox="0 0 771.98 87.37"><defs><style>.cls-1{fill:#e6f9ff;}.cls-2,.cls-3{fill:#06354a;}.cls-2{stroke:#e6f9ff;stroke-miterlimit:10;stroke-width:3px;}</style></defs><g id="Camada_2" data-name="Camada 2"><g id="Layer_1" data-name="Layer 1"><circle class="cls-1" cx="43.69" cy="43.69" r="43.69"/><line class="cls-2" x1="87.37" y1="43.69" x2="171.15" y2="43.69"/><line class="cls-2" x1="258.52" y1="43.69" x2="342.31" y2="43.69"/><circle class="cls-1" cx="214.84" cy="43.69" r="43.69"/><circle class="cls-1" cx="557.14" cy="43.69" r="43.69"/><line class="cls-2" x1="429.68" y1="43.69" x2="513.46" y2="43.69"/><circle class="cls-1" cx="728.3" cy="43.69" r="43.69"/><line class="cls-2" x1="600.83" y1="43.69" x2="684.61" y2="43.69"/><path class="cls-3" d="M28.05,41.76a2.93,2.93,0,0,1,1.53-2.48,2.79,2.79,0,0,1,2.93.13,12.26,12.26,0,0,1,2.58,2.24c1.44,1.5,2.87,3,4.35,4.48.84.84.89.83,1.73,0,1.84-1.82,3.66-3.65,5.48-5.49q3.63-3.66,7.27-7.33a3.3,3.3,0,0,1,2.64-1.15,2.85,2.85,0,0,1,1.91,5c-1.62,1.68-3.23,3.37-4.88,5Q48.72,47,43.8,51.85l-3.06,3c-.45.44-.36.43-.79,0-1.17-1.1-2.31-2.22-3.45-3.35q-3.18-3.15-6.35-6.31c-.53-.53-1-1.1-1.51-1.67A2.66,2.66,0,0,1,28.05,41.76Z"/><path class="cls-3" d="M199.05,41.76a2.93,2.93,0,0,1,1.53-2.48,2.79,2.79,0,0,1,2.93.13,12.26,12.26,0,0,1,2.58,2.24c1.44,1.5,2.87,3,4.35,4.48.84.84.89.83,1.73,0,1.84-1.82,3.66-3.65,5.48-5.49q3.63-3.66,7.27-7.33a3.3,3.3,0,0,1,2.64-1.15,2.85,2.85,0,0,1,1.91,5c-1.62,1.68-3.23,3.37-4.88,5q-4.87,4.88-9.79,9.72l-3.06,3c-.45.44-.36.43-.79,0-1.17-1.1-2.31-2.22-3.45-3.35q-3.18-3.15-6.35-6.31c-.53-.53-1-1.1-1.51-1.67A2.66,2.66,0,0,1,199.05,41.76Z"/><circle class="cls-1" cx="387.87" cy="43.69" r="43.69"/><path class="cls-3" d="M372.23,41.76a2.92,2.92,0,0,1,1.54-2.48,2.77,2.77,0,0,1,2.92.13,12.26,12.26,0,0,1,2.58,2.24c1.45,1.5,2.88,3,4.35,4.48.84.84.9.83,1.74,0q2.75-2.73,5.47-5.49,3.65-3.66,7.27-7.33a3.32,3.32,0,0,1,2.64-1.15,3,3,0,0,1,2.5,4.18,2.73,2.73,0,0,1-.59.77c-1.62,1.68-3.23,3.37-4.88,5Q392.9,47,388,51.85c-1,1-2,2-3.06,3-.45.44-.36.43-.79,0-1.16-1.1-2.3-2.22-3.44-3.35q-3.19-3.15-6.36-6.31c-.53-.53-1-1.1-1.51-1.67A2.71,2.71,0,0,1,372.23,41.76Z"/><path class="cls-3" d="M541.51,41.76A2.91,2.91,0,0,1,543,39.28a2.77,2.77,0,0,1,2.92.13,12.32,12.32,0,0,1,2.59,2.24c1.44,1.5,2.87,3,4.35,4.48.84.84.89.83,1.73,0,1.84-1.82,3.65-3.65,5.47-5.49l7.28-7.33A3.3,3.3,0,0,1,570,32.16a3,3,0,0,1,2.5,4.18,2.69,2.69,0,0,1-.58.77c-1.62,1.68-3.23,3.37-4.88,5-3.25,3.25-6.53,6.48-9.79,9.72l-3.06,3c-.45.44-.36.43-.79,0-1.17-1.1-2.31-2.22-3.45-3.35q-3.18-3.15-6.35-6.31c-.53-.53-1-1.1-1.51-1.67A2.66,2.66,0,0,1,541.51,41.76Z"/><path class="cls-3" d="M712.51,41.76A2.91,2.91,0,0,1,714,39.28a2.77,2.77,0,0,1,2.92.13,12.32,12.32,0,0,1,2.59,2.24c1.44,1.5,2.87,3,4.35,4.48.84.84.89.83,1.73,0,1.84-1.82,3.65-3.65,5.47-5.49l7.28-7.33A3.3,3.3,0,0,1,741,32.16a3,3,0,0,1,2.5,4.18,2.69,2.69,0,0,1-.58.77c-1.62,1.68-3.23,3.37-4.88,5-3.25,3.25-6.53,6.48-9.79,9.72l-3.06,3c-.45.44-.36.43-.79,0-1.17-1.1-2.31-2.22-3.45-3.35q-3.18-3.15-6.35-6.31c-.53-.53-1-1.1-1.51-1.67A2.66,2.66,0,0,1,712.51,41.76Z"/></g></g></svg>