<svg xmlns="http://www.w3.org/2000/svg" viewBox="0 0 774.98 90.37"><defs><style>.cls-1{fill:#e6f9ff;}.cls-1,.cls-2,.cls-3{stroke:#06354a;}.cls-1,.cls-2,.cls-3,.cls-5{stroke-miterlimit:10;stroke-width:3px;}.cls-2{fill:none;}.cls-3,.cls-6{fill:#06354a;}.cls-4{font-size:43.62px;fill:#fff;font-family:Asap-Bold, Asap Bold;font-weight:700;}.cls-5{fill:#f2f2f2;stroke:#ccc;}.cls-7{fill:#ccc;}</style></defs><g id="Camada_2" data-name="Camada 2"><g id="Layer_1" data-name="Layer 1"><circle class="cls-1" cx="45.19" cy="45.19" r="43.69"/><line class="cls-2" x1="88.87" y1="45.19" x2="172.65" y2="45.19"/><line class="cls-2" x1="260.02" y1="45.19" x2="343.81" y2="45.19"/><circle class="cls-1" cx="216.34" cy="45.19" r="43.69"/><circle class="cls-3" cx="558.64" cy="45.19" r="43.69"/><line class="cls-2" x1="431.18" y1="45.19" x2="514.96" y2="45.19"/><text class="cls-4" transform="translate(546.97 58.56)">4</text><circle class="cls-5" cx="729.8" cy="45.19" r="43.69"/><path class="cls-6" d="M29.55,43.26a2.93,2.93,0,0,1,1.53-2.48,2.79,2.79,0,0,1,2.93.13,12.26,12.26,0,0,1,2.58,2.24c1.44,1.5,2.87,3,4.35,4.48.84.84.89.83,1.73,0,1.84-1.82,3.66-3.65,5.48-5.49q3.63-3.66,7.27-7.33a3.3,3.3,0,0,1,2.64-1.15,2.85,2.85,0,0,1,1.91,5c-1.62,1.68-3.23,3.37-4.88,5q-4.87,4.88-9.79,9.72l-3.06,3c-.45.44-.36.43-.79,0-1.17-1.1-2.31-2.22-3.45-3.35q-3.18-3.15-6.35-6.31c-.53-.53-1-1.1-1.51-1.67A2.66,2.66,0,0,1,29.55,43.26Z"/><path class="cls-6" d="M200.55,43.26a2.93,2.93,0,0,1,1.53-2.48,2.79,2.79,0,0,1,2.93.13,12.26,12.26,0,0,1,2.58,2.24c1.44,1.5,2.87,3,4.35,4.48.84.84.89.83,1.73,0,1.84-1.82,3.66-3.65,5.48-5.49q3.63-3.66,7.27-7.33a3.3,3.3,0,0,1,2.64-1.15,2.85,2.85,0,0,1,1.91,5c-1.62,1.68-3.23,3.37-4.88,5q-4.87,4.88-9.79,9.72l-3.06,3c-.45.44-.36.43-.79,0-1.17-1.1-2.31-2.22-3.45-3.35q-3.18-3.15-6.35-6.31c-.53-.53-1-1.1-1.51-1.67A2.66,2.66,0,0,1,200.55,43.26Z"/><rect class="cls-7" x="714.32" y="29.41" width="30.96" height="6.55" rx="3.27"/><rect class="cls-7" x="714.32" y="41.91" width="30.96" height="6.55" rx="3.27"/><rect class="cls-7" x="714.32" y="54.41" width="30.96" height="6.55" rx="3.27"/><circle class="cls-1" cx="389.37" cy="45.19" r="43.69"/><path class="cls-6" d="M373.73,43.26a2.92,2.92,0,0,1,1.54-2.48,2.77,2.77,0,0,1,2.92.13,12.26,12.26,0,0,1,2.58,2.24c1.45,1.5,2.88,3,4.35,4.48.84.84.9.83,1.74,0q2.75-2.73,5.47-5.49,3.65-3.66,7.27-7.33a3.32,3.32,0,0,1,2.64-1.15,3,3,0,0,1,2.5,4.18,2.73,2.73,0,0,1-.59.77c-1.62,1.68-3.23,3.37-4.88,5q-4.87,4.88-9.79,9.72c-1,1-2,2-3.06,3-.45.44-.36.43-.79,0-1.16-1.1-2.3-2.22-3.44-3.35q-3.19-3.15-6.36-6.31c-.53-.53-1-1.1-1.51-1.67A2.71,2.71,0,0,1,373.73,43.26Z"/></g></g></svg>