<svg xmlns="http://www.w3.org/2000/svg" viewBox="0 0 137.79 80.38"><defs><style>.cls-1{fill:#fff;}</style></defs><g id="Camada_2" data-name="Camada 2"><g id="Layer_1" data-name="Layer 1"><path class="cls-1" d="M37.32,68.9H25.84a2.87,2.87,0,1,1,0-5.74H37.32a2.87,2.87,0,0,1,0,5.74Z"/><path class="cls-1" d="M130.62,68.9h-7.18a2.87,2.87,0,0,1,0-5.74h4.8l3.87-20.63C132.05,32,123,23,112,23H93.11L84,63.16h16.51a2.87,2.87,0,0,1,0,5.74H80.38a2.87,2.87,0,0,1-2.24-1.08,2.83,2.83,0,0,1-.56-2.42L88,19.46a2.87,2.87,0,0,1,2.8-2.24H112a25.87,25.87,0,0,1,25.83,25.84l-4.35,23.49A2.87,2.87,0,0,1,130.62,68.9Z"/><path class="cls-1" d="M112,80.38A14.36,14.36,0,1,1,126.31,66,14.38,14.38,0,0,1,112,80.38Zm0-23A8.62,8.62,0,1,0,120.57,66,8.63,8.63,0,0,0,112,57.41Z"/><path class="cls-1" d="M48.8,80.38A14.36,14.36,0,1,1,63.16,66,14.37,14.37,0,0,1,48.8,80.38Zm0-23A8.62,8.62,0,1,0,57.41,66,8.63,8.63,0,0,0,48.8,57.41Z"/><path class="cls-1" d="M37.32,17.22h-23a2.87,2.87,0,0,1,0-5.74h23a2.87,2.87,0,0,1,0,5.74Z"/><path class="cls-1" d="M37.32,34.45H8.61a2.87,2.87,0,1,1,0-5.74H37.32a2.87,2.87,0,0,1,0,5.74Z"/><path class="cls-1" d="M37.32,51.67H2.87a2.87,2.87,0,0,1,0-5.74H37.32a2.87,2.87,0,0,1,0,5.74Z"/><path class="cls-1" d="M80.38,68.9H60.29a2.87,2.87,0,1,1,0-5.74h17.8l13-57.42H25.84a2.87,2.87,0,0,1,0-5.74H94.73a2.87,2.87,0,0,1,2.81,3.5L83.18,66.66a2.88,2.88,0,0,1-2.8,2.24Z"/></g></g></svg>