<?xml version="1.0" encoding="utf-8"?>
<svg viewBox="0 0 500 500" xmlns="http://www.w3.org/2000/svg">
  <g class="cls-2" transform="matrix(1, 0, 0, 1, -752.273998, -339.047979)" style="isolation: isolate;">
    <g id="Layer_1" data-name="Layer 1">
      <path class="cls-7" d="M 975.495 603.437 C 974.844 603.437 974.315 602.909 974.315 602.257 L 974.315 580.787 C 974.231 579.875 975.167 579.214 975.998 579.597 C 976.456 579.808 976.731 580.285 976.685 580.787 C 976.685 585.267 981.535 588.067 985.415 585.827 C 989.295 583.587 989.295 577.987 985.415 575.747 C 984.528 575.234 983.52 574.965 982.495 574.967 L 979.585 574.967 C 978.673 575.051 978.012 574.116 978.396 573.284 C 978.607 572.826 979.083 572.551 979.585 572.597 L 982.495 572.597 C 988.8 572.588 992.75 579.407 989.606 584.871 C 986.906 589.564 980.477 590.392 976.675 586.537 L 976.675 602.257 C 976.675 602.913 976.141 603.443 975.485 603.437" style="fill: rgb(6, 53, 74);"/>
      <path class="cls-7" d="M 947.675 588.967 C 947.02 588.967 946.49 588.433 946.495 587.777 L 946.495 573.777 C 946.411 572.865 947.347 572.204 948.178 572.587 C 948.636 572.798 948.911 573.275 948.865 573.777 L 948.865 587.777 C 948.865 588.434 948.333 588.967 947.675 588.967" style="fill: rgb(6, 53, 74);"/>
      <path class="cls-7" d="M 997.325 588.967 C 996.335 589.038 995.363 588.673 994.665 587.967 C 994.13 587.333 993.864 586.515 993.925 585.687 L 993.925 558.917 C 993.925 558.009 994.909 557.441 995.695 557.895 C 996.06 558.106 996.285 558.495 996.285 558.917 L 996.285 585.837 C 996.275 586.024 996.332 586.208 996.445 586.357 C 996.697 586.548 997.012 586.634 997.325 586.597 C 998.238 586.513 998.898 587.448 998.515 588.28 C 998.304 588.738 997.827 589.013 997.325 588.967" style="fill: rgb(6, 53, 74);"/>
      <path class="cls-7" d="M 1013.745 586.597 L 1009.675 586.597 C 1006.923 586.597 1004.55 584.662 1003.995 581.967 L 1009.675 581.967 C 1010.588 581.883 1011.067 580.843 1010.538 580.095 C 1010.337 579.811 1010.022 579.629 1009.675 579.597 L 1003.975 579.597 C 1004.523 576.897 1006.901 574.96 1009.655 574.967 L 1013.745 574.967 C 1014.658 574.883 1015.137 573.843 1014.608 573.095 C 1014.407 572.811 1014.092 572.629 1013.745 572.597 L 1009.675 572.597 C 1005.165 572.597 1001.506 576.247 1001.495 580.757 L 1001.495 580.757 C 1001.506 585.267 1005.165 588.917 1009.675 588.917 L 1013.765 588.917 C 1014.678 588.833 1015.157 587.793 1014.628 587.045 C 1014.427 586.761 1014.112 586.579 1013.765 586.547" style="fill: rgb(6, 53, 74);"/>
      <path class="cls-7" d="M 974.775 572.597 L 970.155 572.597 C 968.065 572.598 966.107 573.617 964.905 575.327 C 962.765 572.274 958.48 571.685 955.595 574.047 L 955.595 573.787 C 955.679 572.875 954.744 572.214 953.912 572.597 C 953.454 572.808 953.179 573.285 953.225 573.787 L 953.225 587.787 C 953.141 588.699 954.077 589.36 954.908 588.977 C 955.366 588.766 955.641 588.289 955.595 587.787 L 955.595 579.037 C 955.751 575.908 959.235 574.12 961.867 575.819 C 962.969 576.53 963.66 577.728 963.725 579.037 L 963.725 587.787 C 963.725 588.695 964.709 589.263 965.495 588.809 C 965.86 588.598 966.085 588.209 966.085 587.787 L 966.085 579.037 C 966.091 576.793 967.911 574.977 970.155 574.977 L 974.775 574.977 C 975.688 575.061 976.348 574.126 975.965 573.294 C 975.754 572.836 975.277 572.561 974.775 572.607" style="fill: rgb(6, 53, 74);"/>
      <path class="cls-7" d="M 1071.785 588.967 C 1071.1 588.967 1070.545 588.412 1070.545 587.727 L 1070.545 580.437 C 1070.523 562.558 1056.035 548.069 1038.155 548.047 C 1036.758 548.151 1035.997 549.728 1036.786 550.886 C 1037.098 551.345 1037.602 551.636 1038.155 551.677 C 1054.032 551.693 1066.899 564.56 1066.915 580.437 L 1066.915 584.717 C 1067.075 588.023 1063.595 590.262 1060.652 588.747 C 1059.154 587.976 1058.244 586.4 1058.325 584.717 L 1058.325 580.437 C 1058.309 569.304 1049.288 560.283 1038.155 560.267 C 1036.762 560.267 1035.891 561.775 1036.588 562.982 C 1036.911 563.542 1037.509 563.887 1038.155 563.887 C 1047.277 563.92 1054.659 571.315 1054.675 580.437 L 1054.675 587.777 C 1054.589 588.735 1053.498 589.241 1052.711 588.688 C 1052.41 588.476 1052.218 588.143 1052.185 587.777 L 1052.185 580.437 C 1052.18 572.672 1045.89 566.378 1038.125 566.367 C 1034.819 566.527 1032.58 563.047 1034.095 560.104 C 1034.866 558.605 1036.442 557.696 1038.125 557.777 C 1050.643 557.777 1060.794 567.919 1060.805 580.437 L 1060.805 584.717 C 1060.702 586.114 1062.149 587.1 1063.411 586.491 C 1064.084 586.166 1064.491 585.463 1064.435 584.717 L 1064.435 580.437 C 1064.419 565.93 1052.663 554.173 1038.155 554.157 C 1034.849 554.317 1032.61 550.837 1034.125 547.894 C 1034.896 546.395 1036.472 545.486 1038.155 545.567 C 1057.404 545.589 1073.003 561.188 1073.025 580.437 L 1073.025 587.777 C 1073.02 588.46 1072.468 589.012 1071.785 589.017" style="fill: rgb(6, 53, 74);"/>
      <path class="cls-7" d="M 929.365 588.987 C 928.453 589.071 927.792 588.136 928.176 587.304 C 928.387 586.846 928.863 586.571 929.365 586.617 L 937.535 586.617 C 939.317 586.5 940.304 584.497 939.312 583.013 C 938.911 582.413 938.255 582.034 937.535 581.987 L 932.995 581.987 C 929.385 582 927.114 578.1 928.908 574.967 C 929.113 574.609 929.364 574.279 929.655 573.987 C 930.521 573.092 931.711 572.584 932.955 572.577 L 940.885 572.577 L 940.885 572.577 C 941.798 572.493 942.458 573.428 942.075 574.26 C 941.864 574.718 941.387 574.993 940.885 574.947 L 932.975 574.947 C 931.702 574.969 930.684 576.013 930.695 577.287 C 930.706 578.555 931.737 579.577 933.005 579.577 L 937.535 579.577 C 941.142 579.744 943.215 583.752 941.268 586.792 C 940.447 588.073 939.055 588.877 937.535 588.947 Z" style="fill: rgb(6, 53, 74);"/>
      <path class="cls-7" d="M 1037.515 588.967 C 1042.358 588.968 1046.141 584.785 1045.655 579.967 C 1045.125 575.7 1041.465 572.518 1037.165 572.587 L 1034.605 572.587 C 1033.693 572.671 1033.214 573.711 1033.743 574.459 C 1033.943 574.743 1034.259 574.925 1034.605 574.957 L 1037.185 574.957 C 1040.367 574.872 1043.061 577.285 1043.325 580.457 C 1043.523 584.933 1038.801 587.944 1034.826 585.877 C 1033.23 585.047 1032.108 583.526 1031.785 581.757 C 1031.559 580.869 1030.457 580.559 1029.801 581.199 C 1029.55 581.444 1029.42 581.787 1029.445 582.137 C 1030.109 586.076 1033.521 588.959 1037.515 588.957" style="fill: rgb(6, 53, 74);"/>
    </g>
  </g>
</svg>